<?xml version="1.0" encoding="UTF-8"?>
<svg id="_圖層_1" data-name="圖層_1" xmlns="http://www.w3.org/2000/svg" version="1.1" xmlns:sketch="http://www.bohemiancoding.com/sketch/ns" viewBox="0 0 200 200">
  <!-- Generator: Adobe Illustrator 29.4.0, SVG Export Plug-In . SVG Version: 2.1.0 Build 152)  -->
  <defs>
    <style>
      .st0 {
        fill: #fff;
        fill-rule: evenodd;
      }
    </style>
  </defs>
  <description>Created with Sketch (http://www.bohemiancoding.com/sketch)
  </description>
  <g id="Page-1" sketch:type="MSPage">
    <path id="Download" class="st0" d="M100,0C44.8,0,0,44.8,0,100s44.8,100,100,100,100-44.8,100-100S155.2,0,100,0ZM118.8,32.8v83.9c0,1.1.9,2,2,2h31.8c1.1,0,1.8.9,1.6,2,0,0,0,.9-1,2l-51.7,52.2c-.8.8-2,.8-2.8,0l-51.4-52.2c-1.1-1.1-1-2-1-2-.2-1.1.5-1.9,1.6-1.9h31.5c1.1,0,2-.9,2-2V32.8c0-3.3,8.4-6,18.8-6s18.8,2.7,18.8,6Z" sketch:type="MSShapeGroup"/>
  </g>
</svg>