<?xml version="1.0" encoding="UTF-8"?>
<svg id="_圖層_1" data-name="圖層_1" xmlns="http://www.w3.org/2000/svg" version="1.1" xmlns:sketch="http://www.bohemiancoding.com/sketch/ns" viewBox="0 0 200 200">
  <!-- Generator: Adobe Illustrator 29.4.0, SVG Export Plug-In . SVG Version: 2.1.0 Build 152)  -->
  <defs>
    <style>
      .st0 {
        fill: #fff;
        fill-rule: evenodd;
      }
    </style>
  </defs>
  <description>Created with Sketch (http://www.bohemiancoding.com/sketch)
  </description>
  <g id="Page-1" sketch:type="MSPage">
    <path id="Email" class="st0" d="M38.9,62.6c2-2.6,5.1-4.2,8.7-4.2h109.5c2.6,0,5,.9,6.9,2.4h0l-64.2,33.9-60.9-32.2ZM36.9,66.8c-.2.8-.3,1.7-.3,2.6v60.2c0,6.1,4.9,10.9,11,10.9h109.5c6.1,0,10.9-4.9,10.9-10.9v-60.2c0-1.7-.4-3.4-1.1-4.8l-67.1,35.5h0s0,0,0,0l-62.9-33.2ZM100,0C44.8,0,0,44.8,0,100s44.8,100,100,100,100-44.8,100-100S155.2,0,100,0Z" sketch:type="MSShapeGroup"/>
  </g>
</svg>