<?xml version="1.0" encoding="UTF-8"?>
<svg id="_圖層_1" data-name="圖層_1" xmlns="http://www.w3.org/2000/svg" version="1.1" xmlns:sketch="http://www.bohemiancoding.com/sketch/ns" viewBox="0 0 200 200">
  <!-- Generator: Adobe Illustrator 29.4.0, SVG Export Plug-In . SVG Version: 2.1.0 Build 152)  -->
  <defs>
    <style>
      .st0 {
        fill: #fff;
        fill-rule: evenodd;
      }
    </style>
  </defs>
  <description>Created with Sketch (http://www.bohemiancoding.com/sketch)
  </description>
  <g id="Page-1" sketch:type="MSPage">
    <path id="Facebook" class="st0" d="M80.3,198.1C34.5,188.9,0,148.5,0,100S44.8,0,100,0s100,44.8,100,100-39.4,94.5-89.9,99.5v-74h14.4c0-.1,14.4-.3,14.4-.3l.4-9.9c.3-5.5.5-11.6.6-13.5v-3.5c.1,0-14.8,0-14.8,0h-15v-12.6c.3-12.1.3-12.7,1.2-14.4,2.1-3.7,4.9-4.4,18.4-4.4h9.7l.3-12.4c.2-6.8.2-12.3.1-12.4-.5-.5-9.4-1-17.1-1.1-9.4,0-14,.5-19.5,2.4-10.8,3.7-18,11-21.5,21.7-.9,2.6-1,4.1-1.1,18.1v15.2h-20.7v27.2h20.7l-.3,36.9c-.1,16.6-.2,30.9,0,35.6Z" sketch:type="MSShapeGroup"/>
  </g>
</svg>