<?xml version="1.0" encoding="UTF-8"?>
<svg id="_圖層_1" data-name="圖層_1" xmlns="http://www.w3.org/2000/svg" version="1.1" xmlns:sketch="http://www.bohemiancoding.com/sketch/ns" viewBox="0 0 200 200">
  <!-- Generator: Adobe Illustrator 29.4.0, SVG Export Plug-In . SVG Version: 2.1.0 Build 152)  -->
  <defs>
    <style>
      .st0 {
        fill: #fff;
        fill-rule: evenodd;
      }
    </style>
  </defs>
  <description>Created with Sketch (http://www.bohemiancoding.com/sketch)
  </description>
  <g id="Page-1" sketch:type="MSPage">
    <path id="YouTube" class="st0" d="M100,0C44.8,0,0,44.8,0,100s44.8,100,100,100,100-44.8,100-100S155.2,0,100,0h0ZM64.1,29.4c.6,0,1.2,0,1.8,0l3,.2,2.6,9.5c1.5,5.2,2.9,9.3,3.1,9,.2-.2,1.5-4.5,2.8-9.5l2.3-9,3.7-.2c2.7-.2,3.7,0,3.7.8s-1.9,7.4-4.3,15l-4.3,14v21.8h-7.6l-.3-11.8-.3-11.8-4.7-13.8c-3.3-9.9-4.4-13.9-3.7-14.2.3-.1,1.1-.2,2.1-.2h0ZM114.2,42.5h7v32.5h1.8c4,0,4.4-1.6,4.4-17.7v-14.8h7v38.7h-3.5c-3,0-3.5-.2-3.5-1.5,0-2-.1-1.9-3.6.4-3.4,2.3-6,2.5-8.1.4-1.5-1.5-1.5-2.6-1.5-19.7v-18.2h0ZM98,42.5c2,0,4,.4,5.4,1.3,3.9,2.3,4.6,4.9,4.6,18.5,0,10.8-.2,12.6-1.5,14.7-2.9,4.8-9,6.2-13.8,3.3-4.1-2.5-4.8-5.3-4.8-18.6s.5-14.7,4.3-17.7c1.4-1.1,3.5-1.6,5.8-1.6h0ZM97.9,48.7c-.4,0-.9.2-1.4.5-1.2.7-1.4,2.4-1.6,11.6-.3,13.3,0,14.2,2.9,14.2s2.4-.4,2.7-1.7c.2-1,.3-6.6.2-12.5-.2-9.2-.4-10.9-1.6-11.6-.5-.3-.9-.5-1.4-.5h0ZM97.7,90c21.2,0,44.8.9,49,2.1,3.8,1.2,6.8,3.4,8.2,6.3,4.1,8,5.2,42,1.8,59-.9,4.3-4.2,9-7.8,10.8-3.6,1.8-43.1,3.7-63,2.9-16.4-.6-31.7-1.9-34-2.8-3.7-1.5-7.3-6.3-8.2-10.9-1.3-6.4-2.4-25.8-1.9-33.3,1.4-21.6,2.6-26.5,7.3-29.8,3.7-2.6,5.9-2.9,28.9-3.9,5.8-.2,12.6-.4,19.6-.4h0ZM49.9,102.8v7.7h8.5v44.9h8.5v-44.9h8.5v-7.7h-25.5ZM102.6,102.8v52.6h3.5c2.9,0,3.5-.2,3.5-1.5s.1-1.4,2.8.4c3.5,2.4,5.8,2.4,8.6,0l2.2-1.9.2-15.7c.2-14.6.1-15.9-1.3-18.3-2-3.2-6.1-3.7-9.8-1.2l-1.8,1.2v-15.7h-7.7ZM139.4,115.8c-2.2,0-4.4.5-5.8,1.5-4,2.9-4.7,5.7-4.7,18.4s.7,15.7,5.4,18.8c3.8,2.5,9.2,2.1,12.4-1.1,2.5-2.4,4.1-6.6,3.7-9.7-.2-1.7-.7-1.9-3.9-2.1l-3.7-.2v3c0,3.4-1.4,5-4,4.6-2-.3-2.8-2.4-2.9-7.8v-3.6c0,0,7.1-.2,7.1-.2l7.2-.2v-7c0-8.1-1.3-11.2-5.2-13.3-1.6-.8-3.6-1.2-5.6-1.2h0ZM89.4,115.9v15.1c0,14.3,0,15.2-1.6,16.7-.9.9-2.2,1.5-2.9,1.3-1.2-.2-1.3-2-1.5-16.7l-.2-16.4h-3.4c-1.9,0-3.7.4-3.9.8-.3.5-.3,8.9,0,18.7.5,15.9.7,18,2,19.3s3.9,1.8,6.3.6c.9-.5,2.5-1.6,3.4-2.5l1.7-1.6v2.1c0,1.9.2,2.1,3.5,2.1h3.5l.2-15.5c0-8.5.2-17.3.2-19.5v-4.1s-3.6-.2-3.6-.2l-3.7-.2h0ZM139.9,122.3c.5,0,.9.3,1.7,1.1.7.7,1.2,2.6,1.2,4.6v3.4h-3c-1.7,0-3.3-.4-3.5-.8-.9-1.5.5-6.9,2-7.7.8-.4,1.3-.7,1.7-.7h0ZM113.4,122.5c.5,0,.9.3,1.5.8.9.9,1.3,3.4,1.5,10.7.4,11.5-.3,14.8-3.1,15.1-1.1.1-2.3-.2-2.7-.8-.4-.6-.6-6-.4-12.8.3-10.9.4-11.9,1.9-12.7.5-.3,1-.4,1.3-.4h0Z" sketch:type="MSShapeGroup"/>
  </g>
</svg>